<svg width="32" height="32" viewBox="0 0 32 32" fill="none" xmlns="http://www.w3.org/2000/svg">
<path d="M19.146 6.1991C20.1015 6.1991 20.9071 6.84055 21.1558 7.71629C21.9557 10.0387 23.4059 13.3448 24.4829 14.8393C24.6735 14.3466 24.8115 13.7298 24.8718 13.1874C24.8927 12.9993 25.0242 11.7773 25.2079 11.2311C25.4293 10.573 25.8856 10.0067 26.5717 9.78513C27.6884 9.42447 28.9016 10.0857 29.2815 11.262C29.3165 11.3705 29.3432 11.4795 29.362 11.5883C29.4926 12.1474 29.402 12.6612 29.3483 13C29.265 13.526 29.0765 14.7874 28.989 15.625C28.8796 16.6718 28.8171 18.4296 29.114 20.4062C29.414 21.8187 29.3327 23.3177 29.2546 23.8906C28.394 30.2013 21.407 30.6718 19.442 29.7411C18.1032 29.306 16.6834 28.2707 14.7312 26.2734C12.4486 23.938 10.3637 21.3677 9.203 19.6299C8.94073 19.2834 8.78516 18.8517 8.78516 18.3837C8.78516 17.2421 9.71054 16.3168 10.8521 16.3168C11.0707 16.3168 11.2814 16.3507 11.4792 16.4136C11.1023 15.6792 10.7983 15.0372 10.5615 14.3271C10.489 14.1163 10.4496 13.89 10.4496 13.6545C10.4496 12.513 11.375 11.5876 12.5165 11.5876C13.1495 11.5876 13.7161 11.8723 14.0953 12.3205C13.9757 12.053 13.2607 10.2881 13.1354 9.46552C13.1199 9.36322 13.1118 9.25847 13.1118 9.15182C13.1118 8.01031 14.0372 7.08493 15.1787 7.08493C16.0118 7.08493 16.7298 7.57782 17.0569 8.2879C17.057 7.13426 17.9923 6.1991 19.146 6.1991Z" fill="#F5BFAE"/>
<path d="M19.146 6.1991C20.1015 6.1991 20.9071 6.84055 21.1558 7.71629C21.9557 10.0387 23.4059 13.3448 24.4829 14.8393C24.6735 14.3466 24.8115 13.7298 24.8718 13.1874C24.8927 12.9993 25.0242 11.7773 25.2079 11.2311C25.4293 10.573 25.8856 10.0067 26.5717 9.78513C27.6884 9.42447 28.9016 10.0857 29.2815 11.262C29.3165 11.3705 29.3432 11.4795 29.362 11.5883C29.4926 12.1474 29.402 12.6612 29.3483 13C29.265 13.526 29.0765 14.7874 28.989 15.625C28.8796 16.6718 28.8171 18.4296 29.114 20.4062C29.414 21.8187 29.3327 23.3177 29.2546 23.8906C28.394 30.2013 21.407 30.6718 19.442 29.7411C18.1032 29.306 16.6834 28.2707 14.7312 26.2734C12.4486 23.938 10.3637 21.3677 9.203 19.6299C8.94073 19.2834 8.78516 18.8517 8.78516 18.3837C8.78516 17.2421 9.71054 16.3168 10.8521 16.3168C11.0707 16.3168 11.2814 16.3507 11.4792 16.4136C11.1023 15.6792 10.7983 15.0372 10.5615 14.3271C10.489 14.1163 10.4496 13.89 10.4496 13.6545C10.4496 12.513 11.375 11.5876 12.5165 11.5876C13.1495 11.5876 13.7161 11.8723 14.0953 12.3205C13.9757 12.053 13.2607 10.2881 13.1354 9.46552C13.1199 9.36322 13.1118 9.25847 13.1118 9.15182C13.1118 8.01031 14.0372 7.08493 15.1787 7.08493C16.0118 7.08493 16.7298 7.57782 17.0569 8.2879C17.057 7.13426 17.9923 6.1991 19.146 6.1991Z" fill="url(#paint0_radial_383_1683)"/>
<path d="M19.146 6.1991C20.1015 6.1991 20.9071 6.84055 21.1558 7.71629C21.9557 10.0387 23.4059 13.3448 24.4829 14.8393C24.6735 14.3466 24.8115 13.7298 24.8718 13.1874C24.8927 12.9993 25.0242 11.7773 25.2079 11.2311C25.4293 10.573 25.8856 10.0067 26.5717 9.78513C27.6884 9.42447 28.9016 10.0857 29.2815 11.262C29.3165 11.3705 29.3432 11.4795 29.362 11.5883C29.4926 12.1474 29.402 12.6612 29.3483 13C29.265 13.526 29.0765 14.7874 28.989 15.625C28.8796 16.6718 28.8171 18.4296 29.114 20.4062C29.414 21.8187 29.3327 23.3177 29.2546 23.8906C28.394 30.2013 21.407 30.6718 19.442 29.7411C18.1032 29.306 16.6834 28.2707 14.7312 26.2734C12.4486 23.938 10.3637 21.3677 9.203 19.6299C8.94073 19.2834 8.78516 18.8517 8.78516 18.3837C8.78516 17.2421 9.71054 16.3168 10.8521 16.3168C11.0707 16.3168 11.2814 16.3507 11.4792 16.4136C11.1023 15.6792 10.7983 15.0372 10.5615 14.3271C10.489 14.1163 10.4496 13.89 10.4496 13.6545C10.4496 12.513 11.375 11.5876 12.5165 11.5876C13.1495 11.5876 13.7161 11.8723 14.0953 12.3205C13.9757 12.053 13.2607 10.2881 13.1354 9.46552C13.1199 9.36322 13.1118 9.25847 13.1118 9.15182C13.1118 8.01031 14.0372 7.08493 15.1787 7.08493C16.0118 7.08493 16.7298 7.57782 17.0569 8.2879C17.057 7.13426 17.9923 6.1991 19.146 6.1991Z" fill="url(#paint1_linear_383_1683)"/>
<path d="M19.146 6.1991C20.1015 6.1991 20.9071 6.84055 21.1558 7.71629C21.9557 10.0387 23.4059 13.3448 24.4829 14.8393C24.6735 14.3466 24.8115 13.7298 24.8718 13.1874C24.8927 12.9993 25.0242 11.7773 25.2079 11.2311C25.4293 10.573 25.8856 10.0067 26.5717 9.78513C27.6884 9.42447 28.9016 10.0857 29.2815 11.262C29.3165 11.3705 29.3432 11.4795 29.362 11.5883C29.4926 12.1474 29.402 12.6612 29.3483 13C29.265 13.526 29.0765 14.7874 28.989 15.625C28.8796 16.6718 28.8171 18.4296 29.114 20.4062C29.414 21.8187 29.3327 23.3177 29.2546 23.8906C28.394 30.2013 21.407 30.6718 19.442 29.7411C18.1032 29.306 16.6834 28.2707 14.7312 26.2734C12.4486 23.938 10.3637 21.3677 9.203 19.6299C8.94073 19.2834 8.78516 18.8517 8.78516 18.3837C8.78516 17.2421 9.71054 16.3168 10.8521 16.3168C11.0707 16.3168 11.2814 16.3507 11.4792 16.4136C11.1023 15.6792 10.7983 15.0372 10.5615 14.3271C10.489 14.1163 10.4496 13.89 10.4496 13.6545C10.4496 12.513 11.375 11.5876 12.5165 11.5876C13.1495 11.5876 13.7161 11.8723 14.0953 12.3205C13.9757 12.053 13.2607 10.2881 13.1354 9.46552C13.1199 9.36322 13.1118 9.25847 13.1118 9.15182C13.1118 8.01031 14.0372 7.08493 15.1787 7.08493C16.0118 7.08493 16.7298 7.57782 17.0569 8.2879C17.057 7.13426 17.9923 6.1991 19.146 6.1991Z" fill="url(#paint2_radial_383_1683)"/>
<path d="M19.146 6.1991C20.1015 6.1991 20.9071 6.84055 21.1558 7.71629C21.9557 10.0387 23.4059 13.3448 24.4829 14.8393C24.6735 14.3466 24.8115 13.7298 24.8718 13.1874C24.8927 12.9993 25.0242 11.7773 25.2079 11.2311C25.4293 10.573 25.8856 10.0067 26.5717 9.78513C27.6884 9.42447 28.9016 10.0857 29.2815 11.262C29.3165 11.3705 29.3432 11.4795 29.362 11.5883C29.4926 12.1474 29.402 12.6612 29.3483 13C29.265 13.526 29.0765 14.7874 28.989 15.625C28.8796 16.6718 28.8171 18.4296 29.114 20.4062C29.414 21.8187 29.3327 23.3177 29.2546 23.8906C28.394 30.2013 21.407 30.6718 19.442 29.7411C18.1032 29.306 16.6834 28.2707 14.7312 26.2734C12.4486 23.938 10.3637 21.3677 9.203 19.6299C8.94073 19.2834 8.78516 18.8517 8.78516 18.3837C8.78516 17.2421 9.71054 16.3168 10.8521 16.3168C11.0707 16.3168 11.2814 16.3507 11.4792 16.4136C11.1023 15.6792 10.7983 15.0372 10.5615 14.3271C10.489 14.1163 10.4496 13.89 10.4496 13.6545C10.4496 12.513 11.375 11.5876 12.5165 11.5876C13.1495 11.5876 13.7161 11.8723 14.0953 12.3205C13.9757 12.053 13.2607 10.2881 13.1354 9.46552C13.1199 9.36322 13.1118 9.25847 13.1118 9.15182C13.1118 8.01031 14.0372 7.08493 15.1787 7.08493C16.0118 7.08493 16.7298 7.57782 17.0569 8.2879C17.057 7.13426 17.9923 6.1991 19.146 6.1991Z" fill="url(#paint3_radial_383_1683)"/>
<path d="M19.146 6.1991C20.1015 6.1991 20.9071 6.84055 21.1558 7.71629C21.9557 10.0387 23.4059 13.3448 24.4829 14.8393C24.6735 14.3466 24.8115 13.7298 24.8718 13.1874C24.8927 12.9993 25.0242 11.7773 25.2079 11.2311C25.4293 10.573 25.8856 10.0067 26.5717 9.78513C27.6884 9.42447 28.9016 10.0857 29.2815 11.262C29.3165 11.3705 29.3432 11.4795 29.362 11.5883C29.4926 12.1474 29.402 12.6612 29.3483 13C29.265 13.526 29.0765 14.7874 28.989 15.625C28.8796 16.6718 28.8171 18.4296 29.114 20.4062C29.414 21.8187 29.3327 23.3177 29.2546 23.8906C28.394 30.2013 21.407 30.6718 19.442 29.7411C18.1032 29.306 16.6834 28.2707 14.7312 26.2734C12.4486 23.938 10.3637 21.3677 9.203 19.6299C8.94073 19.2834 8.78516 18.8517 8.78516 18.3837C8.78516 17.2421 9.71054 16.3168 10.8521 16.3168C11.0707 16.3168 11.2814 16.3507 11.4792 16.4136C11.1023 15.6792 10.7983 15.0372 10.5615 14.3271C10.489 14.1163 10.4496 13.89 10.4496 13.6545C10.4496 12.513 11.375 11.5876 12.5165 11.5876C13.1495 11.5876 13.7161 11.8723 14.0953 12.3205C13.9757 12.053 13.2607 10.2881 13.1354 9.46552C13.1199 9.36322 13.1118 9.25847 13.1118 9.15182C13.1118 8.01031 14.0372 7.08493 15.1787 7.08493C16.0118 7.08493 16.7298 7.57782 17.0569 8.2879C17.057 7.13426 17.9923 6.1991 19.146 6.1991Z" fill="url(#paint4_radial_383_1683)"/>
<path d="M19.146 6.1991C20.1015 6.1991 20.9071 6.84055 21.1558 7.71629C21.9557 10.0387 23.4059 13.3448 24.4829 14.8393C24.6735 14.3466 24.8115 13.7298 24.8718 13.1874C24.8927 12.9993 25.0242 11.7773 25.2079 11.2311C25.4293 10.573 25.8856 10.0067 26.5717 9.78513C27.6884 9.42447 28.9016 10.0857 29.2815 11.262C29.3165 11.3705 29.3432 11.4795 29.362 11.5883C29.4926 12.1474 29.402 12.6612 29.3483 13C29.265 13.526 29.0765 14.7874 28.989 15.625C28.8796 16.6718 28.8171 18.4296 29.114 20.4062C29.414 21.8187 29.3327 23.3177 29.2546 23.8906C28.394 30.2013 21.407 30.6718 19.442 29.7411C18.1032 29.306 16.6834 28.2707 14.7312 26.2734C12.4486 23.938 10.3637 21.3677 9.203 19.6299C8.94073 19.2834 8.78516 18.8517 8.78516 18.3837C8.78516 17.2421 9.71054 16.3168 10.8521 16.3168C11.0707 16.3168 11.2814 16.3507 11.4792 16.4136C11.1023 15.6792 10.7983 15.0372 10.5615 14.3271C10.489 14.1163 10.4496 13.89 10.4496 13.6545C10.4496 12.513 11.375 11.5876 12.5165 11.5876C13.1495 11.5876 13.7161 11.8723 14.0953 12.3205C13.9757 12.053 13.2607 10.2881 13.1354 9.46552C13.1199 9.36322 13.1118 9.25847 13.1118 9.15182C13.1118 8.01031 14.0372 7.08493 15.1787 7.08493C16.0118 7.08493 16.7298 7.57782 17.0569 8.2879C17.057 7.13426 17.9923 6.1991 19.146 6.1991Z" fill="url(#paint5_radial_383_1683)"/>
<path d="M19.146 6.1991C20.1015 6.1991 20.9071 6.84055 21.1558 7.71629C21.9557 10.0387 23.4059 13.3448 24.4829 14.8393C24.6735 14.3466 24.8115 13.7298 24.8718 13.1874C24.8927 12.9993 25.0242 11.7773 25.2079 11.2311C25.4293 10.573 25.8856 10.0067 26.5717 9.78513C27.6884 9.42447 28.9016 10.0857 29.2815 11.262C29.3165 11.3705 29.3432 11.4795 29.362 11.5883C29.4926 12.1474 29.402 12.6612 29.3483 13C29.265 13.526 29.0765 14.7874 28.989 15.625C28.8796 16.6718 28.8171 18.4296 29.114 20.4062C29.414 21.8187 29.3327 23.3177 29.2546 23.8906C28.394 30.2013 21.407 30.6718 19.442 29.7411C18.1032 29.306 16.6834 28.2707 14.7312 26.2734C12.4486 23.938 10.3637 21.3677 9.203 19.6299C8.94073 19.2834 8.78516 18.8517 8.78516 18.3837C8.78516 17.2421 9.71054 16.3168 10.8521 16.3168C11.0707 16.3168 11.2814 16.3507 11.4792 16.4136C11.1023 15.6792 10.7983 15.0372 10.5615 14.3271C10.489 14.1163 10.4496 13.89 10.4496 13.6545C10.4496 12.513 11.375 11.5876 12.5165 11.5876C13.1495 11.5876 13.7161 11.8723 14.0953 12.3205C13.9757 12.053 13.2607 10.2881 13.1354 9.46552C13.1199 9.36322 13.1118 9.25847 13.1118 9.15182C13.1118 8.01031 14.0372 7.08493 15.1787 7.08493C16.0118 7.08493 16.7298 7.57782 17.0569 8.2879C17.057 7.13426 17.9923 6.1991 19.146 6.1991Z" fill="url(#paint6_radial_383_1683)"/>
<path d="M19.146 6.1991C20.1015 6.1991 20.9071 6.84055 21.1558 7.71629C21.9557 10.0387 23.4059 13.3448 24.4829 14.8393C24.6735 14.3466 24.8115 13.7298 24.8718 13.1874C24.8927 12.9993 25.0242 11.7773 25.2079 11.2311C25.4293 10.573 25.8856 10.0067 26.5717 9.78513C27.6884 9.42447 28.9016 10.0857 29.2815 11.262C29.3165 11.3705 29.3432 11.4795 29.362 11.5883C29.4926 12.1474 29.402 12.6612 29.3483 13C29.265 13.526 29.0765 14.7874 28.989 15.625C28.8796 16.6718 28.8171 18.4296 29.114 20.4062C29.414 21.8187 29.3327 23.3177 29.2546 23.8906C28.394 30.2013 21.407 30.6718 19.442 29.7411C18.1032 29.306 16.6834 28.2707 14.7312 26.2734C12.4486 23.938 10.3637 21.3677 9.203 19.6299C8.94073 19.2834 8.78516 18.8517 8.78516 18.3837C8.78516 17.2421 9.71054 16.3168 10.8521 16.3168C11.0707 16.3168 11.2814 16.3507 11.4792 16.4136C11.1023 15.6792 10.7983 15.0372 10.5615 14.3271C10.489 14.1163 10.4496 13.89 10.4496 13.6545C10.4496 12.513 11.375 11.5876 12.5165 11.5876C13.1495 11.5876 13.7161 11.8723 14.0953 12.3205C13.9757 12.053 13.2607 10.2881 13.1354 9.46552C13.1199 9.36322 13.1118 9.25847 13.1118 9.15182C13.1118 8.01031 14.0372 7.08493 15.1787 7.08493C16.0118 7.08493 16.7298 7.57782 17.0569 8.2879C17.057 7.13426 17.9923 6.1991 19.146 6.1991Z" fill="url(#paint7_radial_383_1683)"/>
<path d="M19.146 6.1991C20.1015 6.1991 20.9071 6.84055 21.1558 7.71629C21.9557 10.0387 23.4059 13.3448 24.4829 14.8393C24.6735 14.3466 24.8115 13.7298 24.8718 13.1874C24.8927 12.9993 25.0242 11.7773 25.2079 11.2311C25.4293 10.573 25.8856 10.0067 26.5717 9.78513C27.6884 9.42447 28.9016 10.0857 29.2815 11.262C29.3165 11.3705 29.3432 11.4795 29.362 11.5883C29.4926 12.1474 29.402 12.6612 29.3483 13C29.265 13.526 29.0765 14.7874 28.989 15.625C28.8796 16.6718 28.8171 18.4296 29.114 20.4062C29.414 21.8187 29.3327 23.3177 29.2546 23.8906C28.394 30.2013 21.407 30.6718 19.442 29.7411C18.1032 29.306 16.6834 28.2707 14.7312 26.2734C12.4486 23.938 10.3637 21.3677 9.203 19.6299C8.94073 19.2834 8.78516 18.8517 8.78516 18.3837C8.78516 17.2421 9.71054 16.3168 10.8521 16.3168C11.0707 16.3168 11.2814 16.3507 11.4792 16.4136C11.1023 15.6792 10.7983 15.0372 10.5615 14.3271C10.489 14.1163 10.4496 13.89 10.4496 13.6545C10.4496 12.513 11.375 11.5876 12.5165 11.5876C13.1495 11.5876 13.7161 11.8723 14.0953 12.3205C13.9757 12.053 13.2607 10.2881 13.1354 9.46552C13.1199 9.36322 13.1118 9.25847 13.1118 9.15182C13.1118 8.01031 14.0372 7.08493 15.1787 7.08493C16.0118 7.08493 16.7298 7.57782 17.0569 8.2879C17.057 7.13426 17.9923 6.1991 19.146 6.1991Z" fill="url(#paint8_radial_383_1683)"/>
<path d="M19.146 6.1991C20.1015 6.1991 20.9071 6.84055 21.1558 7.71629C21.9557 10.0387 23.4059 13.3448 24.4829 14.8393C24.6735 14.3466 24.8115 13.7298 24.8718 13.1874C24.8927 12.9993 25.0242 11.7773 25.2079 11.2311C25.4293 10.573 25.8856 10.0067 26.5717 9.78513C27.6884 9.42447 28.9016 10.0857 29.2815 11.262C29.3165 11.3705 29.3432 11.4795 29.362 11.5883C29.4926 12.1474 29.402 12.6612 29.3483 13C29.265 13.526 29.0765 14.7874 28.989 15.625C28.8796 16.6718 28.8171 18.4296 29.114 20.4062C29.414 21.8187 29.3327 23.3177 29.2546 23.8906C28.394 30.2013 21.407 30.6718 19.442 29.7411C18.1032 29.306 16.6834 28.2707 14.7312 26.2734C12.4486 23.938 10.3637 21.3677 9.203 19.6299C8.94073 19.2834 8.78516 18.8517 8.78516 18.3837C8.78516 17.2421 9.71054 16.3168 10.8521 16.3168C11.0707 16.3168 11.2814 16.3507 11.4792 16.4136C11.1023 15.6792 10.7983 15.0372 10.5615 14.3271C10.489 14.1163 10.4496 13.89 10.4496 13.6545C10.4496 12.513 11.375 11.5876 12.5165 11.5876C13.1495 11.5876 13.7161 11.8723 14.0953 12.3205C13.9757 12.053 13.2607 10.2881 13.1354 9.46552C13.1199 9.36322 13.1118 9.25847 13.1118 9.15182C13.1118 8.01031 14.0372 7.08493 15.1787 7.08493C16.0118 7.08493 16.7298 7.57782 17.0569 8.2879C17.057 7.13426 17.9923 6.1991 19.146 6.1991Z" fill="url(#paint9_radial_383_1683)"/>
<path d="M19.146 6.1991C20.1015 6.1991 20.9071 6.84055 21.1558 7.71629C21.9557 10.0387 23.4059 13.3448 24.4829 14.8393C24.6735 14.3466 24.8115 13.7298 24.8718 13.1874C24.8927 12.9993 25.0242 11.7773 25.2079 11.2311C25.4293 10.573 25.8856 10.0067 26.5717 9.78513C27.6884 9.42447 28.9016 10.0857 29.2815 11.262C29.3165 11.3705 29.3432 11.4795 29.362 11.5883C29.4926 12.1474 29.402 12.6612 29.3483 13C29.265 13.526 29.0765 14.7874 28.989 15.625C28.8796 16.6718 28.8171 18.4296 29.114 20.4062C29.414 21.8187 29.3327 23.3177 29.2546 23.8906C28.394 30.2013 21.407 30.6718 19.442 29.7411C18.1032 29.306 16.6834 28.2707 14.7312 26.2734C12.4486 23.938 10.3637 21.3677 9.203 19.6299C8.94073 19.2834 8.78516 18.8517 8.78516 18.3837C8.78516 17.2421 9.71054 16.3168 10.8521 16.3168C11.0707 16.3168 11.2814 16.3507 11.4792 16.4136C11.1023 15.6792 10.7983 15.0372 10.5615 14.3271C10.489 14.1163 10.4496 13.89 10.4496 13.6545C10.4496 12.513 11.375 11.5876 12.5165 11.5876C13.1495 11.5876 13.7161 11.8723 14.0953 12.3205C13.9757 12.053 13.2607 10.2881 13.1354 9.46552C13.1199 9.36322 13.1118 9.25847 13.1118 9.15182C13.1118 8.01031 14.0372 7.08493 15.1787 7.08493C16.0118 7.08493 16.7298 7.57782 17.0569 8.2879C17.057 7.13426 17.9923 6.1991 19.146 6.1991Z" fill="url(#paint10_radial_383_1683)"/>
<path d="M17.0566 8.26277C17.0852 8.51072 17.1583 8.82887 17.3079 9.2187C17.373 9.38853 17.4523 9.60614 17.5456 9.86186C17.9643 11.0887 18.7515 13.1697 19.7953 15.0718C20.1886 15.7884 20.9061 16.2915 21.7227 16.2534C22.7984 16.2032 24.0346 15.8482 24.5082 14.789L24.5054 14.7789C24.4978 14.7992 24.4902 14.8194 24.4825 14.8393C23.4055 13.3448 21.9553 10.0387 21.1554 7.71629C20.9067 6.84055 20.101 6.1991 19.1456 6.1991C18.0003 6.1991 17.0702 7.12071 17.0566 8.26277Z" fill="url(#paint11_radial_383_1683)"/>
<path d="M17.0566 8.26277C17.0852 8.51072 17.1583 8.82887 17.3079 9.2187C17.373 9.38853 17.4523 9.60614 17.5456 9.86186C17.9643 11.0887 18.7515 13.1697 19.7953 15.0718C20.1886 15.7884 20.9061 16.2915 21.7227 16.2534C22.7984 16.2032 24.0346 15.8482 24.5082 14.789L24.5054 14.7789C24.4978 14.7992 24.4902 14.8194 24.4825 14.8393C23.4055 13.3448 21.9553 10.0387 21.1554 7.71629C20.9067 6.84055 20.101 6.1991 19.1456 6.1991C18.0003 6.1991 17.0702 7.12071 17.0566 8.26277Z" fill="url(#paint12_radial_383_1683)"/>
<path d="M17.0566 8.26277C17.0852 8.51072 17.1583 8.82887 17.3079 9.2187C17.373 9.38853 17.4523 9.60614 17.5456 9.86186C17.9643 11.0887 18.7515 13.1697 19.7953 15.0718C20.1886 15.7884 20.9061 16.2915 21.7227 16.2534C22.7984 16.2032 24.0346 15.8482 24.5082 14.789L24.5054 14.7789C24.4978 14.7992 24.4902 14.8194 24.4825 14.8393C23.4055 13.3448 21.9553 10.0387 21.1554 7.71629C20.9067 6.84055 20.101 6.1991 19.1456 6.1991C18.0003 6.1991 17.0702 7.12071 17.0566 8.26277Z" fill="url(#paint13_radial_383_1683)"/>
<path d="M17.0566 8.26277C17.0852 8.51072 17.1583 8.82887 17.3079 9.2187C17.373 9.38853 17.4523 9.60614 17.5456 9.86186C17.9643 11.0887 18.7515 13.1697 19.7953 15.0718C20.1886 15.7884 20.9061 16.2915 21.7227 16.2534C22.7984 16.2032 24.0346 15.8482 24.5082 14.789L24.5054 14.7789C24.4978 14.7992 24.4902 14.8194 24.4825 14.8393C23.4055 13.3448 21.9553 10.0387 21.1554 7.71629C20.9067 6.84055 20.101 6.1991 19.1456 6.1991C18.0003 6.1991 17.0702 7.12071 17.0566 8.26277Z" fill="url(#paint14_radial_383_1683)"/>
<path d="M17.0566 8.26277C17.0852 8.51072 17.1583 8.82887 17.3079 9.2187C17.373 9.38853 17.4523 9.60614 17.5456 9.86186C17.9643 11.0887 18.7515 13.1697 19.7953 15.0718C20.1886 15.7884 20.9061 16.2915 21.7227 16.2534C22.7984 16.2032 24.0346 15.8482 24.5082 14.789L24.5054 14.7789C24.4978 14.7992 24.4902 14.8194 24.4825 14.8393C23.4055 13.3448 21.9553 10.0387 21.1554 7.71629C20.9067 6.84055 20.101 6.1991 19.1456 6.1991C18.0003 6.1991 17.0702 7.12071 17.0566 8.26277Z" fill="url(#paint15_radial_383_1683)"/>
<path d="M17.0566 8.26277C17.0852 8.51072 17.1583 8.82887 17.3079 9.2187C17.373 9.38853 17.4523 9.60614 17.5456 9.86186C17.9643 11.0887 18.7515 13.1697 19.7953 15.0718C20.1886 15.7884 20.9061 16.2915 21.7227 16.2534C22.7984 16.2032 24.0346 15.8482 24.5082 14.789L24.5054 14.7789C24.4978 14.7992 24.4902 14.8194 24.4825 14.8393C23.4055 13.3448 21.9553 10.0387 21.1554 7.71629C20.9067 6.84055 20.101 6.1991 19.1456 6.1991C18.0003 6.1991 17.0702 7.12071 17.0566 8.26277Z" fill="url(#paint16_radial_383_1683)"/>
<path d="M17.0566 8.26277C17.0852 8.51072 17.1583 8.82887 17.3079 9.2187C17.373 9.38853 17.4523 9.60614 17.5456 9.86186C17.9643 11.0887 18.7515 13.1697 19.7953 15.0718C20.1886 15.7884 20.9061 16.2915 21.7227 16.2534C22.7984 16.2032 24.0346 15.8482 24.5082 14.789L24.5054 14.7789C24.4978 14.7992 24.4902 14.8194 24.4825 14.8393C23.4055 13.3448 21.9553 10.0387 21.1554 7.71629C20.9067 6.84055 20.101 6.1991 19.1456 6.1991C18.0003 6.1991 17.0702 7.12071 17.0566 8.26277Z" fill="url(#paint17_radial_383_1683)"/>
<path d="M17.0566 8.26277C17.0852 8.51072 17.1583 8.82887 17.3079 9.2187C17.373 9.38853 17.4523 9.60614 17.5456 9.86186C17.9643 11.0887 18.7515 13.1697 19.7953 15.0718C20.1886 15.7884 20.9061 16.2915 21.7227 16.2534C22.7984 16.2032 24.0346 15.8482 24.5082 14.789L24.5054 14.7789C24.4978 14.7992 24.4902 14.8194 24.4825 14.8393C23.4055 13.3448 21.9553 10.0387 21.1554 7.71629C20.9067 6.84055 20.101 6.1991 19.1456 6.1991C18.0003 6.1991 17.0702 7.12071 17.0566 8.26277Z" fill="url(#paint18_linear_383_1683)"/>
<path d="M10.565 14.3271C10.4925 14.1163 10.4531 13.89 10.4531 13.6545C10.4531 12.513 11.3785 11.5876 12.52 11.5876C13.1422 11.5876 13.7001 11.8625 14.079 12.2975C15.1137 14.3828 16.388 16.8156 17.3559 18.2343C16.1255 19.9062 15.8299 20.75 15.5747 21.4687C14.7934 20.3802 13.159 18.1641 12.5747 17.4218C12.2614 17.024 11.8794 16.5156 11.4849 16.414C11.0708 15.6523 10.7701 14.9421 10.565 14.3271Z" fill="url(#paint19_radial_383_1683)"/>
<path d="M10.565 14.3271C10.4925 14.1163 10.4531 13.89 10.4531 13.6545C10.4531 12.513 11.3785 11.5876 12.52 11.5876C13.1422 11.5876 13.7001 11.8625 14.079 12.2975C15.1137 14.3828 16.388 16.8156 17.3559 18.2343C16.1255 19.9062 15.8299 20.75 15.5747 21.4687C14.7934 20.3802 13.159 18.1641 12.5747 17.4218C12.2614 17.024 11.8794 16.5156 11.4849 16.414C11.0708 15.6523 10.7701 14.9421 10.565 14.3271Z" fill="url(#paint20_radial_383_1683)"/>
<path d="M10.565 14.3271C10.4925 14.1163 10.4531 13.89 10.4531 13.6545C10.4531 12.513 11.3785 11.5876 12.52 11.5876C13.1422 11.5876 13.7001 11.8625 14.079 12.2975C15.1137 14.3828 16.388 16.8156 17.3559 18.2343C16.1255 19.9062 15.8299 20.75 15.5747 21.4687C14.7934 20.3802 13.159 18.1641 12.5747 17.4218C12.2614 17.024 11.8794 16.5156 11.4849 16.414C11.0708 15.6523 10.7701 14.9421 10.565 14.3271Z" fill="url(#paint21_radial_383_1683)"/>
<path d="M10.565 14.3271C10.4925 14.1163 10.4531 13.89 10.4531 13.6545C10.4531 12.513 11.3785 11.5876 12.52 11.5876C13.1422 11.5876 13.7001 11.8625 14.079 12.2975C15.1137 14.3828 16.388 16.8156 17.3559 18.2343C16.1255 19.9062 15.8299 20.75 15.5747 21.4687C14.7934 20.3802 13.159 18.1641 12.5747 17.4218C12.2614 17.024 11.8794 16.5156 11.4849 16.414C11.0708 15.6523 10.7701 14.9421 10.565 14.3271Z" fill="url(#paint22_radial_383_1683)"/>
<path d="M10.565 14.3271C10.4925 14.1163 10.4531 13.89 10.4531 13.6545C10.4531 12.513 11.3785 11.5876 12.52 11.5876C13.1422 11.5876 13.7001 11.8625 14.079 12.2975C15.1137 14.3828 16.388 16.8156 17.3559 18.2343C16.1255 19.9062 15.8299 20.75 15.5747 21.4687C14.7934 20.3802 13.159 18.1641 12.5747 17.4218C12.2614 17.024 11.8794 16.5156 11.4849 16.414C11.0708 15.6523 10.7701 14.9421 10.565 14.3271Z" fill="url(#paint23_radial_383_1683)"/>
<path d="M10.565 14.3271C10.4925 14.1163 10.4531 13.89 10.4531 13.6545C10.4531 12.513 11.3785 11.5876 12.52 11.5876C13.1422 11.5876 13.7001 11.8625 14.079 12.2975C15.1137 14.3828 16.388 16.8156 17.3559 18.2343C16.1255 19.9062 15.8299 20.75 15.5747 21.4687C14.7934 20.3802 13.159 18.1641 12.5747 17.4218C12.2614 17.024 11.8794 16.5156 11.4849 16.414C11.0708 15.6523 10.7701 14.9421 10.565 14.3271Z" fill="url(#paint24_radial_383_1683)"/>
<path d="M10.565 14.3271C10.4925 14.1163 10.4531 13.89 10.4531 13.6545C10.4531 12.513 11.3785 11.5876 12.52 11.5876C13.1422 11.5876 13.7001 11.8625 14.079 12.2975C15.1137 14.3828 16.388 16.8156 17.3559 18.2343C16.1255 19.9062 15.8299 20.75 15.5747 21.4687C14.7934 20.3802 13.159 18.1641 12.5747 17.4218C12.2614 17.024 11.8794 16.5156 11.4849 16.414C11.0708 15.6523 10.7701 14.9421 10.565 14.3271Z" fill="url(#paint25_linear_383_1683)"/>
<path d="M13.9941 12.0811C14.8122 13.8382 15.8334 16.1021 17.1573 17.9249C17.7666 17.8364 19.2347 17.1562 20.1566 15.6719C19.3264 14.337 17.9 11.3309 17.0438 8.26091C16.711 7.56537 16.0007 7.08496 15.1782 7.08496C14.0367 7.08496 13.1113 8.01035 13.1113 9.15186C13.1113 9.2585 13.1194 9.36325 13.135 9.46555C13.2398 10.1541 13.7579 11.5029 13.9941 12.0811Z" fill="url(#paint26_radial_383_1683)"/>
<path d="M13.9941 12.0811C14.8122 13.8382 15.8334 16.1021 17.1573 17.9249C17.7666 17.8364 19.2347 17.1562 20.1566 15.6719C19.3264 14.337 17.9 11.3309 17.0438 8.26091C16.711 7.56537 16.0007 7.08496 15.1782 7.08496C14.0367 7.08496 13.1113 8.01035 13.1113 9.15186C13.1113 9.2585 13.1194 9.36325 13.135 9.46555C13.2398 10.1541 13.7579 11.5029 13.9941 12.0811Z" fill="url(#paint27_radial_383_1683)"/>
<path d="M13.9941 12.0811C14.8122 13.8382 15.8334 16.1021 17.1573 17.9249C17.7666 17.8364 19.2347 17.1562 20.1566 15.6719C19.3264 14.337 17.9 11.3309 17.0438 8.26091C16.711 7.56537 16.0007 7.08496 15.1782 7.08496C14.0367 7.08496 13.1113 8.01035 13.1113 9.15186C13.1113 9.2585 13.1194 9.36325 13.135 9.46555C13.2398 10.1541 13.7579 11.5029 13.9941 12.0811Z" fill="url(#paint28_linear_383_1683)"/>
<path d="M13.9941 12.0811C14.8122 13.8382 15.8334 16.1021 17.1573 17.9249C17.7666 17.8364 19.2347 17.1562 20.1566 15.6719C19.3264 14.337 17.9 11.3309 17.0438 8.26091C16.711 7.56537 16.0007 7.08496 15.1782 7.08496C14.0367 7.08496 13.1113 8.01035 13.1113 9.15186C13.1113 9.2585 13.1194 9.36325 13.135 9.46555C13.2398 10.1541 13.7579 11.5029 13.9941 12.0811Z" fill="url(#paint29_radial_383_1683)"/>
<path d="M13.9941 12.0811C14.8122 13.8382 15.8334 16.1021 17.1573 17.9249C17.7666 17.8364 19.2347 17.1562 20.1566 15.6719C19.3264 14.337 17.9 11.3309 17.0438 8.26091C16.711 7.56537 16.0007 7.08496 15.1782 7.08496C14.0367 7.08496 13.1113 8.01035 13.1113 9.15186C13.1113 9.2585 13.1194 9.36325 13.135 9.46555C13.2398 10.1541 13.7579 11.5029 13.9941 12.0811Z" fill="url(#paint30_radial_383_1683)"/>
<path d="M13.9941 12.0811C14.8122 13.8382 15.8334 16.1021 17.1573 17.9249C17.7666 17.8364 19.2347 17.1562 20.1566 15.6719C19.3264 14.337 17.9 11.3309 17.0438 8.26091C16.711 7.56537 16.0007 7.08496 15.1782 7.08496C14.0367 7.08496 13.1113 8.01035 13.1113 9.15186C13.1113 9.2585 13.1194 9.36325 13.135 9.46555C13.2398 10.1541 13.7579 11.5029 13.9941 12.0811Z" fill="url(#paint31_radial_383_1683)"/>
<path d="M13.9941 12.0811C14.8122 13.8382 15.8334 16.1021 17.1573 17.9249C17.7666 17.8364 19.2347 17.1562 20.1566 15.6719C19.3264 14.337 17.9 11.3309 17.0438 8.26091C16.711 7.56537 16.0007 7.08496 15.1782 7.08496C14.0367 7.08496 13.1113 8.01035 13.1113 9.15186C13.1113 9.2585 13.1194 9.36325 13.135 9.46555C13.2398 10.1541 13.7579 11.5029 13.9941 12.0811Z" fill="url(#paint32_linear_383_1683)"/>
<path d="M13.9941 12.0811C14.8122 13.8382 15.8334 16.1021 17.1573 17.9249C17.7666 17.8364 19.2347 17.1562 20.1566 15.6719C19.3264 14.337 17.9 11.3309 17.0438 8.26091C16.711 7.56537 16.0007 7.08496 15.1782 7.08496C14.0367 7.08496 13.1113 8.01035 13.1113 9.15186C13.1113 9.2585 13.1194 9.36325 13.135 9.46555C13.2398 10.1541 13.7579 11.5029 13.9941 12.0811Z" fill="url(#paint33_radial_383_1683)"/>
<path d="M13.9941 12.0811C14.8122 13.8382 15.8334 16.1021 17.1573 17.9249C17.7666 17.8364 19.2347 17.1562 20.1566 15.6719C19.3264 14.337 17.9 11.3309 17.0438 8.26091C16.711 7.56537 16.0007 7.08496 15.1782 7.08496C14.0367 7.08496 13.1113 8.01035 13.1113 9.15186C13.1113 9.2585 13.1194 9.36325 13.135 9.46555C13.2398 10.1541 13.7579 11.5029 13.9941 12.0811Z" fill="url(#paint34_radial_383_1683)"/>
<path d="M11.4792 16.4136C11.2814 16.3507 11.0707 16.3168 10.8521 16.3168C9.71054 16.3168 8.78516 17.2422 8.78516 18.3837C8.78516 18.8517 8.94073 19.2834 9.203 19.6299C10.2069 21.1329 11.902 23.2587 13.8185 25.3165C16.1967 24.2025 15.9852 21.9375 15.5797 21.4555C15.5718 21.4777 13.5547 18.6663 12.575 17.4219C12.5589 17.4015 12.5427 17.3808 12.5263 17.3599C12.2225 16.9729 11.8595 16.5104 11.4852 16.414C11.3411 16.1491 11.3397 16.1418 11.4792 16.4136Z" fill="url(#paint35_radial_383_1683)"/>
<path d="M11.4792 16.4136C11.2814 16.3507 11.0707 16.3168 10.8521 16.3168C9.71054 16.3168 8.78516 17.2422 8.78516 18.3837C8.78516 18.8517 8.94073 19.2834 9.203 19.6299C10.2069 21.1329 11.902 23.2587 13.8185 25.3165C16.1967 24.2025 15.9852 21.9375 15.5797 21.4555C15.5718 21.4777 13.5547 18.6663 12.575 17.4219C12.5589 17.4015 12.5427 17.3808 12.5263 17.3599C12.2225 16.9729 11.8595 16.5104 11.4852 16.414C11.3411 16.1491 11.3397 16.1418 11.4792 16.4136Z" fill="url(#paint36_radial_383_1683)"/>
<path fill-rule="evenodd" clip-rule="evenodd" d="M19.7297 2.36256C19.7473 2.11466 19.9626 1.92798 20.2105 1.94561C21.1823 2.01472 22.4411 2.45057 23.451 3.37973C24.4748 4.32172 25.2254 5.75591 25.1753 7.76896C25.1691 8.01741 24.9627 8.2138 24.7142 8.20762C24.4658 8.20143 24.2694 7.99501 24.2755 7.74656C24.3192 5.99398 23.6752 4.80903 22.8416 4.04204C21.9941 3.26221 20.9326 2.89924 20.1466 2.84334C19.8987 2.82572 19.712 2.61046 19.7297 2.36256Z" fill="#1B99E7"/>
<path fill-rule="evenodd" clip-rule="evenodd" d="M19.7297 2.36256C19.7473 2.11466 19.9626 1.92798 20.2105 1.94561C21.1823 2.01472 22.4411 2.45057 23.451 3.37973C24.4748 4.32172 25.2254 5.75591 25.1753 7.76896C25.1691 8.01741 24.9627 8.2138 24.7142 8.20762C24.4658 8.20143 24.2694 7.99501 24.2755 7.74656C24.3192 5.99398 23.6752 4.80903 22.8416 4.04204C21.9941 3.26221 20.9326 2.89924 20.1466 2.84334C19.8987 2.82572 19.712 2.61046 19.7297 2.36256Z" fill="url(#paint37_radial_383_1683)"/>
<path fill-rule="evenodd" clip-rule="evenodd" d="M19.7297 2.36256C19.7473 2.11466 19.9626 1.92798 20.2105 1.94561C21.1823 2.01472 22.4411 2.45057 23.451 3.37973C24.4748 4.32172 25.2254 5.75591 25.1753 7.76896C25.1691 8.01741 24.9627 8.2138 24.7142 8.20762C24.4658 8.20143 24.2694 7.99501 24.2755 7.74656C24.3192 5.99398 23.6752 4.80903 22.8416 4.04204C21.9941 3.26221 20.9326 2.89924 20.1466 2.84334C19.8987 2.82572 19.712 2.61046 19.7297 2.36256Z" fill="url(#paint38_radial_383_1683)"/>
<path fill-rule="evenodd" clip-rule="evenodd" d="M17.5569 3.95765C17.5652 3.70926 17.7733 3.51465 18.0217 3.52296C18.9967 3.55561 20.3509 3.98607 21.4522 4.94885C22.5703 5.92627 23.4175 7.44439 23.3549 9.60683C23.3477 9.85525 23.1405 10.0508 22.8921 10.0436C22.6436 10.0364 22.4481 9.8292 22.4553 9.58078C22.5098 7.69635 21.7828 6.43322 20.8599 5.62645C19.9203 4.80505 18.7666 4.44841 17.9916 4.42246C17.7432 4.41414 17.5486 4.20604 17.5569 3.95765Z" fill="#1B99E7"/>
<path fill-rule="evenodd" clip-rule="evenodd" d="M17.5569 3.95765C17.5652 3.70926 17.7733 3.51465 18.0217 3.52296C18.9967 3.55561 20.3509 3.98607 21.4522 4.94885C22.5703 5.92627 23.4175 7.44439 23.3549 9.60683C23.3477 9.85525 23.1405 10.0508 22.8921 10.0436C22.6436 10.0364 22.4481 9.8292 22.4553 9.58078C22.5098 7.69635 21.7828 6.43322 20.8599 5.62645C19.9203 4.80505 18.7666 4.44841 17.9916 4.42246C17.7432 4.41414 17.5486 4.20604 17.5569 3.95765Z" fill="url(#paint39_radial_383_1683)"/>
<path fill-rule="evenodd" clip-rule="evenodd" d="M17.5569 3.95765C17.5652 3.70926 17.7733 3.51465 18.0217 3.52296C18.9967 3.55561 20.3509 3.98607 21.4522 4.94885C22.5703 5.92627 23.4175 7.44439 23.3549 9.60683C23.3477 9.85525 23.1405 10.0508 22.8921 10.0436C22.6436 10.0364 22.4481 9.8292 22.4553 9.58078C22.5098 7.69635 21.7828 6.43322 20.8599 5.62645C19.9203 4.80505 18.7666 4.44841 17.9916 4.42246C17.7432 4.41414 17.5486 4.20604 17.5569 3.95765Z" fill="url(#paint40_radial_383_1683)"/>
<path fill-rule="evenodd" clip-rule="evenodd" d="M3.78213 15.5123C4.02985 15.5323 4.21446 15.7494 4.19447 15.9971C4.1024 17.138 4.37894 18.335 5.06942 19.3078C5.75464 20.2732 6.86507 21.0433 8.49535 21.3138C8.74052 21.3545 8.9063 21.5862 8.86562 21.8314C8.82494 22.0766 8.59321 22.2424 8.34803 22.2017C6.49394 21.8941 5.16688 21.0001 4.3355 19.8288C3.50939 18.6649 3.19023 17.2525 3.29739 15.9247C3.31738 15.677 3.5344 15.4924 3.78213 15.5123Z" fill="url(#paint41_linear_383_1683)"/>
<path fill-rule="evenodd" clip-rule="evenodd" d="M3.78213 15.5123C4.02985 15.5323 4.21446 15.7494 4.19447 15.9971C4.1024 17.138 4.37894 18.335 5.06942 19.3078C5.75464 20.2732 6.86507 21.0433 8.49535 21.3138C8.74052 21.3545 8.9063 21.5862 8.86562 21.8314C8.82494 22.0766 8.59321 22.2424 8.34803 22.2017C6.49394 21.8941 5.16688 21.0001 4.3355 19.8288C3.50939 18.6649 3.19023 17.2525 3.29739 15.9247C3.31738 15.677 3.5344 15.4924 3.78213 15.5123Z" fill="url(#paint42_radial_383_1683)"/>
<path fill-rule="evenodd" clip-rule="evenodd" d="M1.87796 17.3801C2.12537 17.4036 2.3069 17.6232 2.28341 17.8706C2.07068 20.1111 3.54555 22.4005 6.35665 22.7806C6.60293 22.8139 6.77559 23.0405 6.7423 23.2868C6.709 23.5331 6.48235 23.7058 6.23606 23.6725C2.92211 23.2244 1.13137 20.4825 1.38744 17.7855C1.41093 17.5381 1.63054 17.3566 1.87796 17.3801Z" fill="url(#paint43_linear_383_1683)"/>
<path fill-rule="evenodd" clip-rule="evenodd" d="M1.87796 17.3801C2.12537 17.4036 2.3069 17.6232 2.28341 17.8706C2.07068 20.1111 3.54555 22.4005 6.35665 22.7806C6.60293 22.8139 6.77559 23.0405 6.7423 23.2868C6.709 23.5331 6.48235 23.7058 6.23606 23.6725C2.92211 23.2244 1.13137 20.4825 1.38744 17.7855C1.41093 17.5381 1.63054 17.3566 1.87796 17.3801Z" fill="url(#paint44_radial_383_1683)"/>
<defs>
<radialGradient id="paint0_radial_383_1683" cx="0" cy="0" r="1" gradientUnits="userSpaceOnUse" gradientTransform="translate(23.6501 14.4954) rotate(99.9366) scale(17.1322 19.1258)">
<stop offset="0.561943" stop-color="#F2BCAD" stop-opacity="0"/>
<stop offset="0.95539" stop-color="#BA7D94"/>
</radialGradient>
<linearGradient id="paint1_linear_383_1683" x1="13.3637" y1="22.563" x2="10.5772" y2="25.668" gradientUnits="userSpaceOnUse">
<stop stop-color="#BA7D94" stop-opacity="0"/>
<stop offset="1" stop-color="#BA7D94"/>
</linearGradient>
<radialGradient id="paint2_radial_383_1683" cx="0" cy="0" r="1" gradientUnits="userSpaceOnUse" gradientTransform="translate(28.2974 20.3614) rotate(86.8399) scale(6.80917 5.01389)">
<stop stop-color="#FFE2C9"/>
<stop offset="1" stop-color="#FFE2C9" stop-opacity="0"/>
</radialGradient>
<radialGradient id="paint3_radial_383_1683" cx="0" cy="0" r="1" gradientUnits="userSpaceOnUse" gradientTransform="translate(24.08 16.4562) rotate(89.3772) scale(4.06633 2.99422)">
<stop stop-color="#F9C6B1"/>
<stop offset="1" stop-color="#F9C6B1" stop-opacity="0"/>
</radialGradient>
<radialGradient id="paint4_radial_383_1683" cx="0" cy="0" r="1" gradientUnits="userSpaceOnUse" gradientTransform="translate(26.6876 14.7857) rotate(41.3078) scale(8.48251 8.13211)">
<stop offset="0.217813" stop-color="#EDB7A7"/>
<stop offset="0.41692" stop-color="#EDB7A7" stop-opacity="0"/>
</radialGradient>
<radialGradient id="paint5_radial_383_1683" cx="0" cy="0" r="1" gradientUnits="userSpaceOnUse" gradientTransform="translate(29.4293 16.0947) rotate(7.28278) scale(2.04143 5.99757)">
<stop offset="0.125069" stop-color="#FFCFB9"/>
<stop offset="1" stop-color="#FEDBC4" stop-opacity="0"/>
</radialGradient>
<radialGradient id="paint6_radial_383_1683" cx="0" cy="0" r="1" gradientUnits="userSpaceOnUse" gradientTransform="translate(22.506 22.6115) rotate(-4.19419) scale(9.08553 10.7394)">
<stop offset="0.364432" stop-color="#F7C1AF"/>
<stop offset="0.563201" stop-color="#F7C1AF" stop-opacity="0"/>
</radialGradient>
<radialGradient id="paint7_radial_383_1683" cx="0" cy="0" r="1" gradientUnits="userSpaceOnUse" gradientTransform="translate(28.1963 11.1239) rotate(137.466) scale(2.36204 2.03216)">
<stop stop-color="#FFE0C5"/>
<stop offset="1" stop-color="#FFE1C6" stop-opacity="0"/>
</radialGradient>
<radialGradient id="paint8_radial_383_1683" cx="0" cy="0" r="1" gradientUnits="userSpaceOnUse" gradientTransform="translate(25.6648 13.4056) rotate(11.4337) scale(2.4979 5.51541)">
<stop offset="0.0622247" stop-color="#E9B3A5"/>
<stop offset="1" stop-color="#EAB5A7" stop-opacity="0"/>
</radialGradient>
<radialGradient id="paint9_radial_383_1683" cx="0" cy="0" r="1" gradientUnits="userSpaceOnUse" gradientTransform="translate(24.9192 12.5599) rotate(10.7843) scale(2.26676 5.20186)">
<stop offset="0.0482326" stop-color="#C98C73"/>
<stop offset="1" stop-color="#EEB9A9" stop-opacity="0"/>
</radialGradient>
<radialGradient id="paint10_radial_383_1683" cx="0" cy="0" r="1" gradientUnits="userSpaceOnUse" gradientTransform="translate(12.7679 19.2006) rotate(55.3334) scale(4.50016 1.68185)">
<stop offset="0.229794" stop-color="#FFD6C0"/>
<stop offset="1" stop-color="#FFD1BA" stop-opacity="0"/>
</radialGradient>
<radialGradient id="paint11_radial_383_1683" cx="0" cy="0" r="1" gradientUnits="userSpaceOnUse" gradientTransform="translate(23.2222 11.2273) rotate(156.037) scale(4.10207 8.61847)">
<stop offset="0.599845" stop-color="#E1A696" stop-opacity="0"/>
<stop offset="1" stop-color="#E1A696"/>
</radialGradient>
<radialGradient id="paint12_radial_383_1683" cx="0" cy="0" r="1" gradientUnits="userSpaceOnUse" gradientTransform="translate(23.1782 10.9731) rotate(152.221) scale(5.22429 13.1447)">
<stop offset="0.620251" stop-color="#EAB1A0" stop-opacity="0"/>
<stop offset="0.915696" stop-color="#B55B4B"/>
</radialGradient>
<radialGradient id="paint13_radial_383_1683" cx="0" cy="0" r="1" gradientUnits="userSpaceOnUse" gradientTransform="translate(21.9062 11.5722) rotate(67.7035) scale(6.85802 1.43993)">
<stop stop-color="#FFE0C7"/>
<stop offset="0.899756" stop-color="#FDCCB7" stop-opacity="0"/>
</radialGradient>
<radialGradient id="paint14_radial_383_1683" cx="0" cy="0" r="1" gradientUnits="userSpaceOnUse" gradientTransform="translate(22.0402 7.74536) rotate(75.999) scale(5.36609 3.33328)">
<stop offset="0.34375" stop-color="#FFE0C7"/>
<stop offset="0.899756" stop-color="#FFE0C7" stop-opacity="0"/>
</radialGradient>
<radialGradient id="paint15_radial_383_1683" cx="0" cy="0" r="1" gradientUnits="userSpaceOnUse" gradientTransform="translate(24.5082 14.8593) rotate(-127.591) scale(3.72686 0.797122)">
<stop stop-color="#C8947A"/>
<stop offset="1" stop-color="#C8947A" stop-opacity="0"/>
</radialGradient>
<radialGradient id="paint16_radial_383_1683" cx="0" cy="0" r="1" gradientUnits="userSpaceOnUse" gradientTransform="translate(18.2735 5.29654) rotate(55.8855) scale(2.54282 3.17969)">
<stop stop-color="#E3B79C"/>
<stop offset="1" stop-color="#E3B79C" stop-opacity="0"/>
</radialGradient>
<radialGradient id="paint17_radial_383_1683" cx="0" cy="0" r="1" gradientUnits="userSpaceOnUse" gradientTransform="translate(23.8898 15.5819) rotate(59.5344) scale(0.508384 1.04899)">
<stop stop-color="#E4AD9B"/>
<stop offset="1" stop-color="#E4AD9B" stop-opacity="0"/>
</radialGradient>
<linearGradient id="paint18_linear_383_1683" x1="20.5176" y1="15.7213" x2="20.7809" y2="14.203" gradientUnits="userSpaceOnUse">
<stop stop-color="#F5BFAE"/>
<stop offset="1" stop-color="#F5BFAE" stop-opacity="0"/>
</linearGradient>
<radialGradient id="paint19_radial_383_1683" cx="0" cy="0" r="1" gradientUnits="userSpaceOnUse" gradientTransform="translate(15.9693 15.6093) rotate(146.452) scale(3.50589 9.38314)">
<stop offset="0.425307" stop-color="#E2A693" stop-opacity="0"/>
<stop offset="1" stop-color="#E2A693"/>
</radialGradient>
<radialGradient id="paint20_radial_383_1683" cx="0" cy="0" r="1" gradientUnits="userSpaceOnUse" gradientTransform="translate(15.9693 15.6093) rotate(147.829) scale(4.57788 12.2522)">
<stop offset="0.624797" stop-color="#E09E7E" stop-opacity="0"/>
<stop offset="1" stop-color="#E09E7E"/>
</radialGradient>
<radialGradient id="paint21_radial_383_1683" cx="0" cy="0" r="1" gradientUnits="userSpaceOnUse" gradientTransform="translate(12.6654 17.4933) rotate(-32.6806) scale(3.93552 24.9102)">
<stop offset="0.692182" stop-color="#B55B4B" stop-opacity="0"/>
<stop offset="1" stop-color="#B55B4B"/>
</radialGradient>
<radialGradient id="paint22_radial_383_1683" cx="0" cy="0" r="1" gradientUnits="userSpaceOnUse" gradientTransform="translate(14.2073 15.0449) rotate(61.8712) scale(6.67853 1.41437)">
<stop stop-color="#FFD3BF"/>
<stop offset="1" stop-color="#FFD3BF" stop-opacity="0"/>
</radialGradient>
<radialGradient id="paint23_radial_383_1683" cx="0" cy="0" r="1" gradientUnits="userSpaceOnUse" gradientTransform="translate(12.741 11.2181) rotate(83.1268) scale(2.30263 2.71948)">
<stop stop-color="#DAAA90"/>
<stop offset="1" stop-color="#DAAA90" stop-opacity="0"/>
</radialGradient>
<radialGradient id="paint24_radial_383_1683" cx="0" cy="0" r="1" gradientUnits="userSpaceOnUse" gradientTransform="translate(13.0669 19.2801) rotate(56.6503) scale(4.3943 1.46962)">
<stop offset="0.0997061" stop-color="#B55B4B"/>
<stop offset="1" stop-color="#B55B4B" stop-opacity="0"/>
</radialGradient>
<linearGradient id="paint25_linear_383_1683" x1="16.5555" y1="19.3357" x2="15.0943" y2="18.4531" gradientUnits="userSpaceOnUse">
<stop stop-color="#F5BFAE"/>
<stop offset="1" stop-color="#F5BFAE" stop-opacity="0"/>
</linearGradient>
<radialGradient id="paint26_radial_383_1683" cx="0" cy="0" r="1" gradientUnits="userSpaceOnUse" gradientTransform="translate(18.9407 12.4878) rotate(149.999) scale(4.32353 10.2337)">
<stop offset="0.655467" stop-color="#E2A085" stop-opacity="0"/>
<stop offset="1" stop-color="#E2A085"/>
</radialGradient>
<radialGradient id="paint27_radial_383_1683" cx="0" cy="0" r="1" gradientUnits="userSpaceOnUse" gradientTransform="translate(18.8314 12.4878) rotate(155.961) scale(1.67667 10.6108)">
<stop stop-color="#E1A086"/>
<stop offset="1" stop-color="#E1A086" stop-opacity="0"/>
</radialGradient>
<linearGradient id="paint28_linear_383_1683" x1="17.6566" y1="17.9687" x2="16.7972" y2="15.3281" gradientUnits="userSpaceOnUse">
<stop stop-color="#F5BFAE"/>
<stop offset="1" stop-color="#F5BFAE" stop-opacity="0"/>
</linearGradient>
<radialGradient id="paint29_radial_383_1683" cx="0" cy="0" r="1" gradientUnits="userSpaceOnUse" gradientTransform="translate(15.4465 6.68083) rotate(83.5812) scale(2.51577 2.77818)">
<stop stop-color="#DDAD92"/>
<stop offset="1" stop-color="#DDAD92" stop-opacity="0"/>
</radialGradient>
<radialGradient id="paint30_radial_383_1683" cx="0" cy="0" r="1" gradientUnits="userSpaceOnUse" gradientTransform="translate(17.1554 11.248) rotate(67.3923) scale(9.234 1.50582)">
<stop offset="0.239583" stop-color="#FED4B6"/>
<stop offset="1" stop-color="#FCCBB7" stop-opacity="0"/>
</radialGradient>
<radialGradient id="paint31_radial_383_1683" cx="0" cy="0" r="1" gradientUnits="userSpaceOnUse" gradientTransform="translate(19.0527 11.6746) rotate(154.738) scale(1.36347 5.16751)">
<stop offset="0.280096" stop-color="#B55B4B"/>
<stop offset="1" stop-color="#B55B4B" stop-opacity="0"/>
</radialGradient>
<linearGradient id="paint32_linear_383_1683" x1="18.9168" y1="17.5792" x2="17.6861" y2="16.284" gradientUnits="userSpaceOnUse">
<stop offset="0.357193" stop-color="#F5BFAE"/>
<stop offset="0.6405" stop-color="#F5BFAE" stop-opacity="0"/>
</linearGradient>
<radialGradient id="paint33_radial_383_1683" cx="0" cy="0" r="1" gradientUnits="userSpaceOnUse" gradientTransform="translate(14.8027 14.3569) rotate(-23.1864) scale(1.75486 7.53691)">
<stop offset="0.092806" stop-color="#B55B4B"/>
<stop offset="1" stop-color="#E8B19A" stop-opacity="0"/>
</radialGradient>
<radialGradient id="paint34_radial_383_1683" cx="0" cy="0" r="1" gradientUnits="userSpaceOnUse" gradientTransform="translate(17.3902 17.8614) rotate(-91.5275) scale(0.917403 3.94014)">
<stop offset="0.092806" stop-color="#F5BFAE"/>
<stop offset="1" stop-color="#F5BFAE" stop-opacity="0"/>
</radialGradient>
<radialGradient id="paint35_radial_383_1683" cx="0" cy="0" r="1" gradientUnits="userSpaceOnUse" gradientTransform="translate(14.2721 18.291) rotate(132.32) scale(1.65614 5.61524)">
<stop offset="0.211062" stop-color="#B55B4B"/>
<stop offset="1" stop-color="#B55B4B" stop-opacity="0"/>
</radialGradient>
<radialGradient id="paint36_radial_383_1683" cx="0" cy="0" r="1" gradientUnits="userSpaceOnUse" gradientTransform="translate(11.1208 15.872) rotate(82.3929) scale(2.125 2.77166)">
<stop stop-color="#DCA990"/>
<stop offset="1" stop-color="#DCA990" stop-opacity="0"/>
</radialGradient>
<radialGradient id="paint37_radial_383_1683" cx="0" cy="0" r="1" gradientUnits="userSpaceOnUse" gradientTransform="translate(22.2099 5.23432) rotate(-44.7092) scale(2.17659 5.56896)">
<stop stop-color="#16579C"/>
<stop offset="0.743739" stop-color="#16579C" stop-opacity="0"/>
</radialGradient>
<radialGradient id="paint38_radial_383_1683" cx="0" cy="0" r="1" gradientUnits="userSpaceOnUse" gradientTransform="translate(21.4704 6.06832) rotate(49.9384) scale(4.26914 2.87957)">
<stop offset="0.667349" stop-color="#154F8C"/>
<stop offset="1" stop-color="#154F8C" stop-opacity="0"/>
</radialGradient>
<radialGradient id="paint39_radial_383_1683" cx="0" cy="0" r="1" gradientUnits="userSpaceOnUse" gradientTransform="translate(20.1954 6.94906) rotate(-43.9169) scale(2.31376 5.91598)">
<stop stop-color="#16579C"/>
<stop offset="0.861756" stop-color="#16579C" stop-opacity="0"/>
</radialGradient>
<radialGradient id="paint40_radial_383_1683" cx="0" cy="0" r="1" gradientUnits="userSpaceOnUse" gradientTransform="translate(19.3275 7.86265) rotate(48.1522) scale(4.54407 3.07549)">
<stop offset="0.75121" stop-color="#154F8C"/>
<stop offset="1" stop-color="#154F8C" stop-opacity="0"/>
</radialGradient>
<linearGradient id="paint41_linear_383_1683" x1="4.8359" y1="15.9609" x2="8.0234" y2="22.5937" gradientUnits="userSpaceOnUse">
<stop stop-color="#1679C5"/>
<stop offset="1" stop-color="#0D5194"/>
</linearGradient>
<radialGradient id="paint42_radial_383_1683" cx="0" cy="0" r="1" gradientUnits="userSpaceOnUse" gradientTransform="translate(5.53903 18.5781) rotate(164.814) scale(2.26665 6.09358)">
<stop offset="0.705955" stop-color="#0E5196" stop-opacity="0"/>
<stop offset="1" stop-color="#0E5196"/>
</radialGradient>
<linearGradient id="paint43_linear_383_1683" x1="2.87194" y1="17.8281" x2="6.61348" y2="25.9485" gradientUnits="userSpaceOnUse">
<stop offset="0.297941" stop-color="#1679C5"/>
<stop offset="1" stop-color="#0D5194"/>
</linearGradient>
<radialGradient id="paint44_radial_383_1683" cx="0" cy="0" r="1" gradientUnits="userSpaceOnUse" gradientTransform="translate(3.54342 20.2654) rotate(165.175) scale(2.16099 5.68433)">
<stop offset="0.705955" stop-color="#0E5196" stop-opacity="0"/>
<stop offset="1" stop-color="#0E5196"/>
</radialGradient>
</defs>
</svg>
